<?xml version="1.0" encoding="utf-8"?>
<!-- Generator: Adobe Illustrator 16.0.4, SVG Export Plug-In . SVG Version: 6.00 Build 0)  -->
<!DOCTYPE svg PUBLIC "-//W3C//DTD SVG 1.1 Basic//EN" "http://www.w3.org/Graphics/SVG/1.1/DTD/svg11-basic.dtd">
<svg version="1.1" baseProfile="basic" id="Layer_1"
	 xmlns="http://www.w3.org/2000/svg" xmlns:xlink="http://www.w3.org/1999/xlink" x="0px" y="0px" width="20px" height="20px"
	 viewBox="0 0 20 20" xml:space="preserve">
<g>
	<path fill="#444444" d="M19.017,17.328c-0.281,0.656-1.031,1.085-1.635,1.42c-0.791,0.429-1.594,0.684-2.492,0.684
		c-1.246,0-2.371-0.509-3.51-0.925c-0.817-0.294-1.607-0.656-2.345-1.111c-2.277-1.407-5.024-4.153-6.431-6.431
		C2.149,10.228,1.788,9.438,1.493,8.62C1.077,7.481,0.568,6.355,0.568,5.11c0-0.897,0.255-1.702,0.683-2.492
		c0.336-0.603,0.764-1.354,1.421-1.635c0.442-0.2,1.38-0.415,1.862-0.415c0.094,0,0.188,0,0.281,0.04
		c0.281,0.094,0.576,0.75,0.71,1.019c0.429,0.764,0.844,1.54,1.286,2.291C7.026,4.266,7.428,4.694,7.428,5.11
		c0,0.817-2.425,2.009-2.425,2.732c0,0.362,0.335,0.831,0.522,1.152c1.353,2.438,3.041,4.126,5.479,5.479
		c0.321,0.188,0.791,0.522,1.152,0.522c0.723,0,1.916-2.425,2.732-2.425c0.416,0,0.844,0.402,1.193,0.616
		c0.75,0.442,1.526,0.857,2.29,1.286c0.269,0.134,0.925,0.429,1.019,0.71c0.04,0.094,0.04,0.188,0.04,0.281
		C19.432,15.948,19.218,16.886,19.017,17.328z"/>
</g>
</svg>
