<?xml version="1.0" encoding="utf-8"?>
<!-- Generator: Adobe Illustrator 16.0.4, SVG Export Plug-In . SVG Version: 6.00 Build 0)  -->
<!DOCTYPE svg PUBLIC "-//W3C//DTD SVG 1.1 Basic//EN" "http://www.w3.org/Graphics/SVG/1.1/DTD/svg11-basic.dtd">
<svg version="1.1" baseProfile="basic" id="Layer_1"
	 xmlns="http://www.w3.org/2000/svg" xmlns:xlink="http://www.w3.org/1999/xlink" x="0px" y="0px" width="20px" height="20px"
	 viewBox="0 0 20 20" xml:space="preserve">
<g>
	<path fill="#444444" d="M0.568,15.466c0-0.094,0-0.188,0.04-0.281c0.094-0.281,0.75-0.576,1.019-0.71
		c0.764-0.429,1.54-0.844,2.29-1.286c0.35-0.214,0.777-0.616,1.193-0.616c0.816,0,2.01,2.425,2.732,2.425
		c0.361,0,0.831-0.335,1.152-0.522c2.438-1.354,4.127-3.041,5.479-5.479c0.188-0.321,0.522-0.79,0.522-1.152
		c0-0.724-2.425-1.915-2.425-2.732c0-0.416,0.401-0.845,0.616-1.192c0.442-0.751,0.857-1.527,1.286-2.291
		c0.134-0.269,0.429-0.925,0.71-1.019c0.094-0.04,0.188-0.04,0.281-0.04c0.482,0,1.42,0.215,1.862,0.415
		c0.657,0.281,1.085,1.032,1.421,1.635c0.428,0.79,0.683,1.595,0.683,2.492c0,1.245-0.509,2.371-0.925,3.51
		c-0.295,0.817-0.656,1.607-1.111,2.345c-1.406,2.277-4.153,5.023-6.431,6.431c-0.737,0.455-1.527,0.817-2.345,1.111
		c-1.139,0.416-2.264,0.925-3.51,0.925c-0.898,0-1.701-0.255-2.492-0.684c-0.604-0.335-1.354-0.764-1.635-1.42
		C0.782,16.886,0.568,15.948,0.568,15.466z"/>
</g>
</svg>
